<svg width="35" height="35" viewBox="0 0 35 35" fill="none" xmlns="http://www.w3.org/2000/svg">
<path d="M34.0019 24.5558L26.3455 21.3545C26.0184 21.2185 25.6549 21.1899 25.3097 21.2728C24.9644 21.3558 24.6563 21.546 24.4314 21.8147L21.0407 25.8563C15.7194 23.4085 11.4369 19.2305 8.92789 14.0389L13.0706 10.7309C13.3465 10.512 13.5418 10.2112 13.6269 9.87428C13.712 9.53734 13.6823 9.18248 13.5422 8.86355L10.2609 1.39388C10.1072 1.05001 9.83526 0.769253 9.49209 0.600021C9.14891 0.430789 8.75595 0.383687 8.381 0.466836L1.27151 2.06747C0.909991 2.14892 0.587453 2.34751 0.356524 2.63082C0.125596 2.91414 -8.32775e-05 3.26545 4.14005e-08 3.62743C4.14005e-08 20.7343 14.2122 34.5731 31.7193 34.5731C32.0904 34.5734 32.4507 34.4508 32.7413 34.2255C33.0318 34.0002 33.2354 33.6854 33.3189 33.3327L34.9596 26.3965C35.0443 26.0289 34.9949 25.644 34.8202 25.308C34.6454 24.9721 34.356 24.7061 34.0019 24.5558Z" fill="#FF3C38"/>
</svg>
